<svg xmlns="http://www.w3.org/2000/svg" xmlns:xlink="http://www.w3.org/1999/xlink" fill="none" version="1.1" width="1024" height="1024" viewBox="0 0 1024 1024"><defs><clipPath id="master_svg0_1_3435"><rect x="0" y="0" width="1024" height="1024" rx="0"/></clipPath></defs><g style="mix-blend-mode:passthrough" clip-path="url(#master_svg0_1_3435)"><g><g><g><g><g><g><path d="M845.3693818359375,733.7779810791016C860.2993818359375,716.3929810791016,871.5713818359375,696.2589810791015,879.5393818359375,673.7359810791015C882.3953818359375,665.6609810791016,889.8303818359375,660.0909810791015,898.3913818359375,659.6119810791015C905.3723818359375,659.2209810791015,912.5073818359375,658.7789810791016,919.8013818359375,658.2849810791015C926.5403818359375,658.2359810791015,938.2973818359375,655.6919810791015,946.3923818359375,651.7379810791016C954.5903818359375,647.7329810791016,956.8323818359376,644.5719810791015,956.0003818359374,640.0619810791015C955.3833818359375,636.7519810791016,952.3963818359375,634.8369810791016,943.5383818359375,633.9369810791015C937.5673818359375,633.3299810791016,930.7023818359374,633.6899810791016,924.0103818359376,634.6899810791016C921.4333818359376,635.0749810791016,919.5943818359375,635.4399810791016,918.7993818359375,635.6279810791016C905.1163818359375,638.8759810791016,892.1033818359375,628.1929810791016,892.6443818359375,614.1559810791016C894.4053818359375,568.4339810791016,888.3253818359375,525.6959810791016,875.0403818359375,486.57398107910154C874.5783818359375,485.34098107910154,874.1073818359375,484.1129810791016,873.3973818359375,482.27498107910156C872.4933818359375,479.74198107910155,871.9833818359375,478.46098107910154,871.4313818359375,477.35698107910156C868.3543818359375,470.21998107910156,865.5973818359375,464.3559810791016,862.6083818359375,458.56598107910156C859.8853818359376,453.2909810791016,859.4973818359375,447.11898107910156,861.5373818359375,441.54498107910155C870.4103818359375,417.3079810791015,870.7473818359375,367.1589810791015,858.5623818359375,320.47198107910157C843.2153818359375,261.6709810791016,810.8753818359374,212.48388107910156,760.5393818359375,180.16848107910155C759.0623818359375,180.42358107910155,757.3793818359375,180.76908107910157,755.5613818359375,181.20218107910156C746.7373818359375,183.30518107910157,736.8073818359375,186.92258107910158,726.8803818359376,192.03348107910156C699.4033818359375,206.18098107910157,676.7723818359375,228.84188107910157,662.5503818359375,261.5760810791015C652.9043818359376,283.77998107910156,619.5373818359375,275.14898107910153,621.8943818359375,251.05898107910156C622.6373818359375,243.46458107910155,623.0563818359375,234.11688107910157,623.1153818359375,222.90988107910155C621.7813818359375,196.51558107910157,619.8613818359376,194.51018107910156,609.9863818359376,194.36328107910157C608.5653818359375,194.34208107910155,607.2873818359375,194.36108107910155,604.4143818359375,194.43298107910155C588.4463818359375,194.83278107910155,581.4163818359375,194.03258107910156,571.8733818359375,187.32318107910157C510.1923818359375,143.95838107910157,436.3673818359375,162.62304107910157,409.1843818359375,227.08068107910157C408.0593818359375,229.74988107910156,406.9593818359375,238.71658107910156,406.9793818359375,249.20518107910158C407.0203818359375,271.98498107910154,375.9973818359375,278.83098107910155,366.4273818359375,258.1530810791016C351.9233818359375,226.81638107910157,329.5023818359375,205.07878107910156,302.6043818359375,191.50968107910157C292.8803818359375,186.60408107910155,283.1913818359375,183.13408107910158,274.6203818359375,181.12378107910155C272.9303818359375,180.72758107910155,271.3633818359375,180.40878107910157,269.98038183593746,180.16968107910157C222.6933818359375,210.56258107910156,191.33138183593752,255.71138107910156,174.8923818359375,310.02798107910155C161.5005818359375,354.27498107910156,159.4256818359375,402.31198107910154,166.5473818359375,433.12598107910156C167.6513818359375,437.90298107910155,167.0660818359375,442.9159810791016,164.89028183593751,447.31098107910157C158.6794818359375,459.85798107910153,153.2915818359375,472.7619810791016,148.7416818359375,486.01998107910157C135.15158183593752,525.6189810791016,129.0416818359375,568.3459810791015,130.8057818359375,614.1559810791016C131.3462818359375,628.1929810791016,118.3339818359375,638.8759810791016,104.65038183593751,635.6279810791016C103.8555818359375,635.4399810791016,102.0168818359375,635.0749810791016,99.4393818359375,634.6899810791016C92.7478818359375,633.6899810791016,85.88238183593751,633.3299810791016,79.9119818359375,633.9369810791015C71.0541018359375,634.8369810791016,68.0662678359375,636.7519810791016,67.4559108359375,640.0289810791016C66.6174008359375,644.5719810791015,68.8597518359375,647.7329810791016,77.0582218359375,651.7379810791016C85.15328183593749,655.6919810791015,96.9096818359375,658.2359810791015,102.21028183593751,658.2359810791015C110.94238183593751,658.7789810791016,118.0782818359375,659.2209810791015,125.05878183593751,659.6119810791015C133.6199818359375,660.0909810791015,141.0544818359375,665.6609810791016,143.9111818359375,673.7359810791015C151.87908183593748,696.2589810791015,163.1504818359375,716.3929810791016,178.3323818359375,734.0769810791015C242.3173818359375,811.4209810791016,329.9223818359375,849.7889810791015,491.0953818359375,861.4569810791015L532.3553818359376,861.4569810791015C693.5283818359375,849.7889810791015,781.1333818359375,811.4209810791016,845.3693818359375,733.7779810791016Z" fill="#FEE7D3" fill-opacity="1"/></g><g><path d="M998.6575302734375,647.7491447753906C935.1455302734375,662.9511447753906,848.8025302734375,666.6631447753906,755.2175302734375,655.2571447753907C656.7075302734376,643.2521447753907,570.0635302734376,616.9201447753906,511.9025302734375,584.7331447753907C453.7415302734375,616.9201447753906,367.0975302734375,643.2521447753907,268.5875302734375,655.2571447753907C175.0035302734375,666.6621447753906,88.6597302734375,662.9511447753906,25.1485072734375,647.7491447753906C24.6258842734375,642.8911447753907,24.8252450734375,637.7381447753907,25.8282312734375,632.3051447753905C30.5597602734375,606.8981447753906,50.2206302734375,594.2981447753906,75.7825302734375,591.7001447753906C79.9069302734375,591.2811447753907,84.07173027343751,591.1261447753907,88.2385302734375,591.1931447753907C88.9859302734375,549.3241447753906,95.8786302734375,509.61814477539065,108.7003302734375,472.2591447753906C113.0436302734375,459.6031447753906,118.0624302734375,447.2321447753906,123.7437302734375,435.15414477539065C116.8353302734375,397.4221447753906,119.8655302734375,345.68114477539064,134.37253027343752,297.7491447753906C154.3045302734375,231.89314477539062,193.6355302734375,176.67844477539063,253.6405302734375,140.42744477539063C265.7455302734375,133.23814477539062,295.2925302734375,140.16844477539064,321.9465302734375,153.61494477539063C342.5985302734375,164.03344477539062,361.2965302734375,178.21354477539063,377.0085302734375,196.38434477539062C419.5325302734375,118.02388477539063,517.4425302734376,97.28204477539063,596.1645302734375,152.35874477539062C597.1585302734375,152.09454477539063,598.9185302734375,152.1067447753906,603.5245302734374,151.99134477539062C606.9575302734376,151.90544477539063,608.6245302734375,151.8807447753906,610.7955302734375,151.91304477539063C635.5585302734376,152.2815447753906,652.4415302734375,163.66884477539062,660.5345302734376,189.07694477539064C674.3935302734375,174.75764477539062,690.2725302734375,163.20794477539062,707.5765302734375,154.29824477539063C734.6065302734376,140.38124477539063,764.9645302734375,133.14664477539063,777.3605302734375,140.50954477539062C841.0045302734375,178.9595447753906,881.3735302734375,238.87414477539062,899.8765302734375,309.7681447753906C912.8825302734375,359.6001447753906,913.6765302734375,413.01014477539064,904.5085302734375,447.02214477539064C906.4135302734375,450.9891447753906,908.2285302734375,454.9901447753906,909.9545302734375,459.02914477539065C911.2965302734375,461.78214477539063,912.2655302734375,464.2351447753906,913.3885302734375,467.41114477539065C913.9475302734375,468.83714477539064,914.4965302734375,470.2681447753906,915.2535302734375,472.31814477539064C927.9715302734375,509.7391447753906,934.8195302734375,549.4181447753906,935.5625302734375,591.1931447753907C939.7295302734375,591.1261447753907,943.8945302734375,591.2811447753907,948.0185302734375,591.7001447753906C973.5805302734375,594.2981447753906,993.2415302734375,606.8981447753906,997.9785302734375,632.3381447753907C998.9795302734375,637.7581447753906,999.1785302734374,642.9001447753906,998.6575302734375,647.7491447753906ZM611.7005302734375,291.77514477539063C603.0885302734375,284.52714477539064,593.5135302734375,276.78114477539066,582.9755302734375,268.53714477539063C559.7485302734375,264.84714477539063,535.9305302734375,262.93114477539064,511.6635302734375,262.93114477539064C487.2895302734375,262.93114477539064,463.3675302734375,264.8641447753906,440.0425302734375,268.5861447753906C430.4005302734375,276.21714477539064,421.0465302734375,283.84714477539063,411.9795302734375,291.47814477539066C388.8745302734375,310.9231447753906,370.4755302734375,327.97914477539064,356.7815302734375,342.64614477539067C350.3195302734375,349.5691447753906,350.4565302734375,360.3461447753906,357.0945302734375,367.1011447753906C377.2785302734375,387.6411447753906,397.4625302734375,405.9461447753906,417.6455302734375,422.0141447753906C439.7875302734375,439.64214477539065,468.1955302734375,459.02014477539063,502.8675302734375,480.15014477539063C508.3525302734375,483.49314477539065,515.2215302734376,483.60614477539065,520.8135302734374,480.44514477539065C547.1815302734375,465.5421447753906,576.0825302734376,445.5781447753906,607.5175302734375,420.5521447753906C634.0485302734374,399.4301447753906,653.8785302734375,381.8411447753906,667.0055302734374,367.7841447753906C673.3775302734375,360.9611447753906,673.3485302734375,350.36814477539065,666.9385302734376,343.5811447753906C650.6315302734375,326.3121447753906,632.2185302734375,309.04414477539063,611.7005302734375,291.77514477539063Z" fill="#EB3F44" fill-opacity="1"/></g><g><path d="M948.0185302734375,591.7001447753906C973.5805302734375,594.2981447753906,993.2415302734375,606.8981447753906,997.9785302734375,632.3381447753907C1002.8315302734375,658.6291447753906,988.8275302734374,678.3721447753907,965.2445302734375,689.8921447753906C951.4645302734375,696.6231447753906,933.8315302734375,700.5251447753906,922.2255302734375,700.7011447753906C919.6905302734375,700.8721447753907,917.1725302734375,701.0371447753906,914.6735302734374,701.1961447753906C905.4555302734375,723.2471447753907,893.2945302734375,743.4051447753907,878.0665302734375,761.1331447753906C805.8795302734375,848.3921447753906,707.2595302734375,891.4981447753906,534.8205302734375,903.8741447753906L490.5045302734375,903.9291447753906C316.5415302734375,891.4981447753906,217.9215302734375,848.3921447753906,145.9865302734375,761.4321447753906C130.5475302734375,743.4541447753907,118.3516302734375,723.2551447753906,109.1277302734375,701.1961447753906C106.6283302734375,701.0371447753906,104.1109302734375,700.8721447753907,101.5753302734375,700.7011447753906C89.9693302734375,700.5251447753906,72.3361302734375,696.6231447753906,58.5560302734375,689.8921447753906C34.9730302734375,678.3721447753907,20.9688602734375,658.6291447753906,25.8282312734375,632.3051447753905C30.5597602734375,606.8981447753906,50.2206302734375,594.2981447753906,75.7825302734375,591.7001447753906C79.9069302734375,591.2811447753907,84.07173027343751,591.1261447753907,88.2385302734375,591.1931447753907C88.9859302734375,549.3241447753906,95.8786302734375,509.61814477539065,108.7003302734375,472.2591447753906C113.0436302734375,459.6031447753906,118.0624302734375,447.2321447753906,123.7437302734375,435.15414477539065C116.8353302734375,397.4221447753906,119.8655302734375,345.68114477539064,134.37253027343752,297.7491447753906C154.3045302734375,231.89314477539062,193.6355302734375,176.67844477539063,253.6405302734375,140.42744477539063C265.7455302734375,133.23814477539062,295.2925302734375,140.16844477539064,321.9465302734375,153.61494477539063C342.5985302734375,164.03344477539062,361.2965302734375,178.21354477539063,377.0085302734375,196.38434477539062C419.5325302734375,118.02388477539063,517.4425302734376,97.28204477539063,596.1645302734375,152.35874477539062C597.1585302734375,152.09454477539063,598.9185302734375,152.10664477539063,603.5245302734374,151.99134477539062C606.9575302734376,151.90544477539063,608.6245302734375,151.8807447753906,610.7955302734375,151.91304477539063C635.5585302734376,152.2815447753906,652.4415302734375,163.66884477539062,660.5345302734376,189.07694477539064C674.3935302734375,174.75764477539062,690.2725302734375,163.20794477539062,707.5765302734375,154.29824477539063C734.6065302734376,140.38124477539063,764.9645302734375,133.14664477539063,777.3605302734375,140.50954477539062C841.0045302734375,178.9595447753906,881.3735302734375,238.87414477539062,899.8765302734375,309.7681447753906C912.8825302734375,359.59914477539064,913.6765302734375,413.01014477539064,904.5085302734375,447.02214477539064C906.4135302734375,450.9891447753906,908.2285302734375,454.9901447753906,909.9545302734375,459.02914477539065C911.2965302734375,461.78214477539063,912.2655302734375,464.2351447753906,913.3885302734375,467.41114477539065C913.9475302734375,468.83714477539064,914.4965302734375,470.2681447753906,915.2535302734375,472.31814477539064C927.9715302734375,509.7391447753906,934.8195302734375,549.4181447753906,935.5625302734375,591.1931447753907C939.7295302734375,591.1261447753907,943.8945302734375,591.2811447753907,948.0185302734375,591.7001447753906ZM845.5445302734375,733.7861447753907C860.4755302734375,716.4011447753907,871.7465302734375,696.2681447753906,879.7145302734375,673.7451447753906C882.5715302734375,665.6701447753907,890.0055302734374,660.0991447753906,898.5665302734375,659.6201447753906C905.5475302734375,659.2291447753906,912.6835302734376,658.7871447753906,919.9775302734375,658.2931447753906C926.7155302734375,658.2441447753906,938.4725302734375,655.7001447753906,946.5675302734375,651.7461447753906C954.7655302734375,647.7411447753906,957.0085302734375,644.5801447753906,956.1755302734375,640.0701447753906C955.5595302734375,636.7601447753906,952.5715302734375,634.8451447753906,943.7135302734375,633.9451447753906C937.7435302734375,633.3381447753907,930.8775302734375,633.6981447753906,924.1865302734375,634.6981447753906C921.6085302734375,635.0831447753907,919.7695302734375,635.4481447753906,918.9755302734375,635.6361447753907C905.2915302734375,638.8841447753906,892.2795302734374,628.2011447753906,892.8195302734375,614.1641447753907C894.5805302734375,568.4421447753906,888.5015302734375,525.7041447753907,875.2155302734375,486.58214477539065C874.7535302734375,485.3501447753906,874.2825302734375,484.12114477539063,873.5725302734375,482.2831447753906C872.6685302734375,479.75014477539065,872.1585302734375,478.46914477539065,871.6065302734376,477.36614477539064C868.5295302734374,470.2281447753906,865.7725302734375,464.3651447753906,862.7835302734375,458.5741447753906C860.0605302734375,453.29914477539063,859.6725302734375,447.1271447753906,861.7125302734376,441.55314477539065C870.5855302734375,417.3161447753906,870.9225302734375,367.1671447753906,858.7375302734375,320.4801447753906C843.3905302734375,261.6791447753906,811.0515302734375,212.49224477539065,760.7145302734375,180.17684477539063C759.2375302734375,180.43194477539063,757.5545302734375,180.77734477539062,755.7365302734376,181.21054477539062C746.9125302734375,183.31354477539062,736.9825302734375,186.93094477539063,727.0565302734375,192.0417447753906C699.5795302734375,206.18924477539062,676.9475302734375,228.85014477539062,662.7265302734374,261.58414477539066C653.0795302734375,283.7881447753906,619.7125302734376,275.15714477539063,622.0705302734375,251.06714477539063C622.8135302734376,243.4731447753906,623.2315302734376,234.12514477539062,623.2905302734375,222.91814477539063C621.9565302734375,196.52394477539065,620.0375302734375,194.51854477539064,610.1625302734375,194.37154477539065C608.7415302734375,194.35044477539063,607.4625302734376,194.36934477539063,604.5895302734375,194.44134477539063C588.6225302734375,194.84114477539063,581.5915302734375,194.04094477539064,572.0485302734374,187.33144477539062C510.3685302734375,143.96664477539062,436.5435302734375,162.63134477539063,409.3595302734375,227.08914477539062C408.2345302734375,229.75814477539063,407.1355302734375,238.72514477539062,407.1545302734375,249.21314477539062C407.1955302734375,271.99314477539065,376.1725302734375,278.83914477539065,366.6025302734375,258.16114477539065C352.0985302734375,226.82514477539064,329.6775302734375,205.08714477539064,302.7795302734375,191.51794477539062C293.0555302734375,186.61244477539063,283.3665302734375,183.14244477539063,274.7955302734375,181.13214477539063C273.10553027343747,180.73584477539063,271.53853027343746,180.41714477539062,270.1565302734375,180.17804477539062C222.8685302734375,210.57094477539061,191.5065302734375,255.72014477539062,175.0675302734375,310.03614477539065C161.6755302734375,354.2841447753906,159.6015302734375,402.32014477539065,166.7225302734375,433.1341447753906C167.8265302734375,437.91114477539065,167.2415302734375,442.92414477539063,165.0655302734375,447.3191447753906C158.8545302734375,459.86614477539064,153.4665302734375,472.7711447753906,148.9175302734375,486.0281447753906C135.3265302734375,525.6271447753907,129.2165302734375,568.3551447753906,130.9815302734375,614.1641447753907C131.52153027343752,628.2011447753906,118.5093302734375,638.8841447753906,104.8257302734375,635.6361447753907C104.0309302734375,635.4481447753906,102.1922302734375,635.0831447753907,99.6147302734375,634.6981447753906C92.9232302734375,633.6981447753906,86.0577302734375,633.3381447753907,80.0873302734375,633.9451447753906C71.22953027343749,634.8451447753906,68.2416302734375,636.7601447753906,67.6313302734375,640.0371447753906C66.7927302734375,644.5801447753906,69.0351302734375,647.7411447753906,77.2336302734375,651.7461447753906C85.3286302734375,655.7001447753906,97.0850302734375,658.2441447753906,102.3856302734375,658.2441447753906C111.1177302734375,658.7871447753906,118.2536302734375,659.2291447753906,125.2345302734375,659.6201447753906C133.79553027343752,660.0991447753906,141.2295302734375,665.6701447753907,144.08653027343752,673.7451447753906C152.0545302734375,696.2681447753906,163.3255302734375,716.4011447753907,178.5075302734375,734.0851447753906C242.4925302734375,811.4301447753907,330.0975302734375,849.7981447753906,491.2705302734375,861.4651447753906L532.5305302734375,861.4651447753906C693.7035302734375,849.7981447753906,781.3085302734376,811.4291447753906,845.5445302734375,733.7861447753907Z" fill="#FFFFFF" fill-opacity="1"/></g><g><path d="M612.2245839843749,292.1583700195313C632.7435839843749,309.42697001953127,651.156583984375,326.69547001953123,667.463583984375,343.96397001953125C673.8725839843751,350.75157001953124,673.902583984375,361.34437001953125,667.530583984375,368.16727001953126C654.402583984375,382.2242700195312,634.573583984375,399.8132700195313,608.0415839843749,420.93527001953123C576.606583984375,445.96127001953124,547.705583984375,465.92527001953124,521.338583984375,480.82827001953126C515.745583984375,483.98927001953126,508.877583984375,483.87627001953126,503.39158398437496,480.53327001953124C468.719583984375,459.4042700195313,440.312383984375,440.02527001953126,418.170383984375,422.3972700195312C397.986783984375,406.32927001953124,377.803083984375,388.02427001953123,357.619343984375,367.48427001953127C350.981373984375,360.7294700195313,350.843463984375,349.9522700195313,357.306373984375,343.02977001953127C370.999783984375,328.36277001953124,389.399083984375,311.30657001953125,412.504183984375,291.86117001953124C421.570883984375,284.23047001953125,430.92508398437496,276.59987001953124,440.566783984375,268.9692500195313C463.891583984375,265.24765001953125,487.813583984375,263.31427001953125,512.187583984375,263.31427001953125C536.454583984375,263.31427001953125,560.273583984375,265.2306200195313,583.500583984375,268.92007001953124C594.037583984375,277.16417001953124,603.612583984375,284.91027001953125,612.2245839843749,292.1583700195313Z" fill="#FDE072" fill-opacity="1"/></g><g><path d="M729.302544921875,550.5139085449218C738.132544921875,553.4674085449219,742.865544921875,562.9891085449219,739.844544921875,571.7720085449218C736.833544921875,580.5250085449219,727.266544921875,585.2120085449219,718.466544921875,582.2680085449218C691.474544921875,573.2400085449219,655.687544921875,560.0955085449218,611.191544921875,542.9503085449219C597.144544921875,537.5375085449218,596.808544921875,517.9293085449219,610.642544921875,511.96620854492187C615.306544921875,509.9555085449219,620.350544921875,507.71060854492185,627.109544921875,504.6398085449219C628.2945449218751,504.10170854492185,630.375544921875,503.15240854492185,635.9055449218749,500.6281085449219C641.333544921875,498.1504085449219,643.3905449218751,497.21170854492186,644.637544921875,496.6450085449219C666.964544921875,486.5005085449219,681.210544921875,480.55923854492187,695.835544921875,475.3726785449219C698.903544921875,474.2846185449219,701.909544921875,473.2635885449219,704.864544921875,472.30664854492187C713.710544921875,469.44128854492186,723.221544921875,474.2214285449219,726.100544921875,483.0173085449219C728.984544921875,491.8262085449219,724.112544921875,501.2872085449219,715.253544921875,504.1568085449219C712.598544921875,505.0168085449219,709.887544921875,505.9376085449219,707.111544921875,506.9222085449219C694.049544921875,511.5544085449219,681.063544921875,516.9431085449219,661.027544921875,526.0098085449218C688.067544921875,536.1555085449219,710.872544921875,544.3496085449219,729.302544921875,550.5139085449218ZM295.603544921875,550.7116085449219C313.806544921875,543.9069085449219,336.312544921875,534.9206085449218,362.982544921875,523.8358085449219C342.642544921875,515.4751085449219,329.477544921875,510.5435085449219,316.261544921875,506.3708085449219C313.45254492187496,505.48390854492186,310.711544921875,504.65830854492185,308.028544921875,503.89170854492187C299.07454492187503,501.3336085449219,293.876544921875,492.0485085449219,296.451544921875,483.14420854492187C299.022544921875,474.2530585449219,308.360544921875,469.1433485449219,317.301544921875,471.6977445449219C320.287544921875,472.55084854492185,323.326544921875,473.4661385449219,326.431544921875,474.4462985449219C341.227544921875,479.11847854492186,355.672544921875,484.5581085449219,378.33854492187504,493.91600854492185C379.605544921875,494.4387085449219,381.69454492187504,495.30500854492186,387.205544921875,497.5914085449219C392.81954492187504,499.9208085449219,394.932544921875,500.79690854492185,396.134544921875,501.2933085449219C402.997544921875,504.1258085449219,408.116544921875,506.19310854492187,412.848544921875,508.0395085449219C426.880544921875,513.5153085449218,427.228544921875,533.1233085449219,413.378544921875,539.0239085449218C369.506544921875,557.7141085449218,334.19954492187503,572.1010085449219,307.538544921875,582.0680085449219C298.84654492187497,585.3170085449219,289.12254492187503,580.9680085449219,285.808544921875,572.3250085449218C282.483544921875,563.6533085449219,286.881544921875,553.9720085449219,295.603544921875,550.7116085449219ZM488.219544921875,579.6810085449218C487.241544921875,578.4130085449219,486.711544921875,576.8580085449219,486.711544921875,575.2570085449219C486.710544921875,571.2580085449218,489.952544921875,568.0164085449219,493.953544921875,568.0170085449219L511.508544921875,567.9151085449218L529.064544921875,567.8133085449219C530.7425449218749,567.8135085449219,532.368544921875,568.3962085449218,533.664544921875,569.4616085449219C536.754544921875,572.0020085449219,537.200544921875,576.5640085449219,534.660544921875,579.6530085449219C529.085544921875,586.4330085449219,524.022544921875,590.0830085449219,520.062544921875,592.0480085449219C516.103544921875,594.0120085449219,513.248544921875,594.2910085449219,512.0885449218749,594.3290085449219C509.768544921875,594.4050085449219,498.602544921875,593.1370085449219,488.219544921875,579.6810085449218ZM150.894444921875,604.5730085449219C145.225104921875,606.0930085449219,139.395844921875,602.7340085449218,137.874398921875,597.0720085449219C136.352974921875,591.4090085449219,139.715514921875,585.5870085449219,145.384864921875,584.0670085449219C164.698244921875,578.8900085449219,180.92844492187498,578.3550085449219,194.11604492187502,582.8770085449219C199.667844921875,584.7810085449219,202.623444921875,590.8190085449219,200.717444921875,596.3640085449218C198.811544921875,601.9100085449219,192.765744921875,604.8620085449219,187.213844921875,602.9580085449219C178.585744921875,600.0000085449219,166.465844921875,600.3990085449219,150.894444921875,604.5730085449219ZM177.79234492187499,653.4310085449218C172.478144921875,655.9250085449219,166.149844921875,653.6460085449219,163.657544921875,648.3390085449219C161.165344921875,643.0330085449218,163.452844921875,636.7090085449219,168.767044921875,634.2150085449218C185.885544921875,626.1800085449219,200.965644921875,623.2350085449218,214.074644921875,625.8520085449219C219.82934492187502,627.0020085449219,223.55774492187498,632.5940085449218,222.402344921875,638.3440085449218C221.246944921875,644.0930085449219,215.645144921875,647.8230085449219,209.890444921875,646.6740085449219C201.864044921875,645.0710085449218,191.142244921875,647.1650085449219,177.79234492187499,653.4310085449218ZM870.018544921875,604.5730085449219C854.447544921875,600.3990085449219,842.327544921875,600.0000085449219,833.699544921875,602.9580085449219C828.147544921875,604.8620085449219,822.101544921875,601.9100085449219,820.195544921875,596.3640085449218C818.289544921875,590.8190085449219,821.245544921875,584.7810085449219,826.797544921875,582.8770085449219C839.984544921875,578.3550085449219,856.215544921875,578.8900085449219,875.528544921875,584.0670085449219C881.197544921875,585.5870085449219,884.560544921875,591.4090085449219,883.039544921875,597.0720085449219C881.517544921875,602.7340085449218,875.688544921875,606.0930085449219,870.018544921875,604.5730085449219ZM843.120544921875,653.4310085449218C829.771544921875,647.1650085449219,819.049544921875,645.0710085449218,811.022544921875,646.6740085449219C805.268544921875,647.8230085449219,799.666544921875,644.0930085449219,798.510544921875,638.3440085449218C797.355544921875,632.5940085449218,801.083544921875,627.0020085449219,806.838544921875,625.8520085449219C819.947544921875,623.2350085449218,835.027544921875,626.1800085449219,852.146544921875,634.2150085449218C857.460544921875,636.7090085449219,859.747544921875,643.0330085449218,857.255544921875,648.3390085449219C854.763544921875,653.6460085449219,848.435544921875,655.9250085449219,843.120544921875,653.4310085449218ZM543.518544921875,660.9250085449219L575.062544921875,660.4280085449219C575.7555449218751,705.2440085449218,555.010544921875,746.8630085449219,511.661544921875,746.8630085449219C468.368544921875,746.8630085449219,448.174544921875,706.3690085449218,448.034544921875,660.7260085449219L479.581544921875,660.6270085449219C479.675544921875,690.9690085449218,491.666544921875,715.0150085449219,511.661544921875,715.0150085449219C531.658544921875,715.0150085449219,543.9735449218749,690.3090085449219,543.518544921875,660.9250085449219ZM587.981544921875,613.6920085449219C584.589544921875,605.6130085449219,588.394544921875,596.3180085449219,596.4825449218749,592.9290085449219C604.570544921875,589.5400085449219,613.877544921875,593.3410085449219,617.270544921875,601.4190085449219C633.892544921875,640.9960085449219,610.9095449218751,676.2900085449219,568.195544921875,676.2900085449219C528.374544921875,676.2900085449219,495.676544921875,645.7650085449219,495.676544921875,607.5550085449219C495.676544921875,598.7950085449219,502.786544921875,591.6940085449219,511.556544921875,591.6940085449219C520.327544921875,591.6940085449219,527.437544921875,598.7950085449219,527.437544921875,607.5550085449219C527.437544921875,627.7470085449219,545.454544921875,644.5660085449219,568.195544921875,644.5660085449219C588.041544921875,644.5660085449219,595.888544921875,632.5170085449219,587.981544921875,613.6920085449219ZM495.676544921875,607.5550085449219C495.676544921875,598.7950085449219,502.786544921875,591.6940085449219,511.556544921875,591.6940085449219C520.327544921875,591.6940085449219,527.437544921875,598.7950085449219,527.437544921875,607.5550085449219C527.437544921875,645.7650085449219,494.738544921875,676.2900085449219,454.918544921875,676.2900085449219C412.204544921875,676.2900085449219,389.220544921875,640.9960085449219,405.843544921875,601.4190085449219C409.236544921875,593.3410085449219,418.542544921875,589.5400085449219,426.630544921875,592.9290085449219C434.718544921875,596.3180085449219,438.524544921875,605.6130085449219,435.131544921875,613.6920085449219C427.224544921875,632.5170085449219,435.071544921875,644.5660085449219,454.918544921875,644.5660085449219C477.659544921875,644.5660085449219,495.676544921875,627.7470085449219,495.676544921875,607.5550085449219Z" fill="#73423E" fill-opacity="1"/></g></g></g></g></g></g></g></svg>